<svg width="24" height="24" viewBox="0 0 24 24" xmlns="http://www.w3.org/2000/svg">
  <path fill="currentColor" fill-rule="evenodd" d="M12 2.25A9.75 9.75 0 1 0 21.75 12 9.76 9.76 0 0 0 12 2.25Zm6.7 6.75h-2.92a13.6 13.6 0 0 0-1.04-3.4A8.28 8.28 0 0 1 18.7 9ZM12 3.84c.7.62 1.52 2.08 1.96 4.16H10.04C10.48 5.92 11.3 4.46 12 3.84ZM3.94 13.5A8.2 8.2 0 0 1 3.75 12c0-.51.05-1.01.15-1.5h3.3a16 16 0 0 0 0 3h-3.26Zm.62 1.5h2.92c.24 1.23.6 2.37 1.04 3.4A8.28 8.28 0 0 1 4.56 15Zm2.92-6H4.56a8.28 8.28 0 0 1 3.96-3.4A13.6 13.6 0 0 0 7.48 9ZM12 20.16c-.7-.62-1.52-2.08-1.96-4.16h3.92c-.44 2.08-1.26 3.54-1.96 4.16Zm2.26-5.66H9.74a14.2 14.2 0 0 1 0-3h4.52a14.2 14.2 0 0 1 0 3Zm.78 3.9c.44-1.03.8-2.17 1.04-3.4h2.92a8.28 8.28 0 0 1-3.96 3.4Zm1.27-4.9a16 16 0 0 0 0-3h3.3c.1.49.15.99.15 1.5s-.05 1.01-.15 1.5h-3.3Z"/>
</svg>
