<svg width="16" height="16" viewBox="0 0 16 16" fill="none" xmlns="http://www.w3.org/2000/svg">
  <path d="M3 1.5C3 1.22386 3.22386 1 3.5 1H10L13 4V14.5C13 14.7761 12.7761 15 12.5 15H3.5C3.22386 15 3 14.7761 3 14.5V1.5Z" fill="#43454A"/>
  <path d="M10 1L13 4H10.5C10.2239 4 10 3.77614 10 3.5V1Z" fill="#6E7076"/>
  <rect x="5" y="6" width="3" height="1.5" rx="0.2" fill="#AFB1B3"/>
  <rect x="9" y="6" width="2.5" height="1.5" rx="0.2" fill="#AFB1B3"/>
  <rect x="5" y="8.5" width="3" height="1.5" rx="0.2" fill="#AFB1B3"/>
  <rect x="9" y="8.5" width="2.5" height="1.5" rx="0.2" fill="#AFB1B3"/>
  <rect x="5" y="11" width="3" height="1.5" rx="0.2" fill="#AFB1B3"/>
  <rect x="9" y="11" width="2.5" height="1.5" rx="0.2" fill="#AFB1B3"/>
</svg>
